<svg width="14" height="14" viewBox="0 0 14 14" fill="none" xmlns="http://www.w3.org/2000/svg">
<path d="M2.85714 2.38095V0H1.90476C1.39959 0 0.915104 0.20068 0.557892 0.557892C0.20068 0.915104 0 1.39959 0 1.90476V9.52381C0 10.029 0.20068 10.5135 0.557892 10.8707C0.915104 11.2279 1.39959 11.4286 1.90476 11.4286V7.14095C1.90476 6.35047 2.54571 5.71428 3.33333 5.71428H8.09524C8.47412 5.71428 8.83748 5.86479 9.10539 6.1327C9.3733 6.40061 9.52381 6.76397 9.52381 7.14285V11.4286C10.029 11.4286 10.5135 11.2279 10.8707 10.8707C11.2279 10.5135 11.4286 10.029 11.4286 9.52381V3.44857C11.4285 2.94344 11.2277 2.45903 10.8705 2.1019L9.32666 0.558095C8.96954 0.200858 8.48513 0.000107881 7.98 0H7.61905V2.38095C7.61905 2.75983 7.46854 3.12319 7.20063 3.3911C6.93272 3.65901 6.56936 3.80952 6.19047 3.80952H4.28571C3.90683 3.80952 3.54347 3.65901 3.27556 3.3911C3.00765 3.12319 2.85714 2.75983 2.85714 2.38095ZM3.80952 2.38095V0H6.66667V2.38095C6.66667 2.50725 6.6165 2.62837 6.52719 2.71767C6.43789 2.80697 6.31677 2.85714 6.19047 2.85714H4.28571C4.15942 2.85714 4.0383 2.80697 3.949 2.71767C3.85969 2.62837 3.80952 2.50725 3.80952 2.38095ZM8.57143 11.4286H2.85714V7.14095C2.85714 6.87905 3.06952 6.66666 3.33333 6.66666H8.09524C8.22153 6.66666 8.34265 6.71683 8.43195 6.80614C8.52126 6.89544 8.57143 7.01656 8.57143 7.14285V11.4286ZM5.23809 13.3333C4.36543 13.3346 3.5273 12.9925 2.90476 12.3809H10C10.6315 12.3809 11.2371 12.1301 11.6836 11.6836C12.1301 11.2371 12.3809 10.6315 12.3809 10V2.90476C12.9695 3.50667 13.3333 4.33047 13.3333 5.23809V10C13.3333 10.8841 12.9821 11.7319 12.357 12.357C11.7319 12.9821 10.8841 13.3333 10 13.3333H5.23809Z" fill="white"/>
</svg>
